<?xml version="1.0" encoding="UTF-8"?>
<!DOCTYPE svg PUBLIC "-//W3C//DTD SVG 1.1//EN" "http://www.w3.org/Graphics/SVG/1.1/DTD/svg11.dtd">
<!-- Creator: CorelDRAW 2020 (64-Bit) -->
<svg xmlns="http://www.w3.org/2000/svg" xml:space="preserve" width="1.66667in" height="0.833335in" version="1.1" style="shape-rendering:geometricPrecision; text-rendering:geometricPrecision; image-rendering:optimizeQuality; fill-rule:evenodd; clip-rule:evenodd"
viewBox="0 0 1666.66 833.33"
 xmlns:xlink="http://www.w3.org/1999/xlink"
 xmlns:xodm="http://www.corel.com/coreldraw/odm/2003">
 <defs>
  <style type="text/css">
   <![CDATA[
    .str0 {stroke:#CE4F3D;stroke-width:3.33;stroke-miterlimit:2.61313}
    .fil5 {fill:none}
    .fil1 {fill:none;fill-rule:nonzero}
    .fil2 {fill:#FEDB44}
    .fil3 {fill:#CE4F3D}
    .fil4 {fill:#007FB3}
    .fil0 {fill:white;fill-rule:nonzero}
   ]]>
  </style>
   <clipPath id="id0">
    <path d="M-0 0l1666.66 0 0 833.33 -1666.66 0 0 -833.33z"/>
   </clipPath>
 </defs>
 <g id="Layer_x0020_1">
  <metadata id="CorelCorpID_0Corel-Layer"/>
  <g>
  </g>
  <g style="clip-path:url(#id0)">
   <g>
    <path class="fil0" d="M225.27 346.4l0 -141.83 -24.53 0 0 -21.39 24.53 0 0 -17.3c0,-10.95 0.94,-19.08 2.88,-24.37 2.67,-7.13 7.28,-12.95 14,-17.41 6.65,-4.45 16.04,-6.65 28.09,-6.65 7.81,0 16.41,0.94 25.84,2.78l-4.14 24.22c-5.76,-1 -11.16,-1.52 -16.3,-1.52 -8.39,0 -14.31,1.78 -17.82,5.35 -3.46,3.56 -5.19,10.22 -5.19,19.97l0 14.94 31.76 0 0 21.39 -31.45 0 0 141.83 -27.67 0z"/>
    <path id="1" class="fil0" d="M305.73 346.4l0 -163.22 24.85 0 0 25c6.34,-11.58 12.21,-19.24 17.61,-22.91 5.4,-3.72 11.32,-5.56 17.77,-5.56 9.33,0 18.82,2.94 28.46,8.75l-9.85 25.53c-6.71,-3.77 -13.42,-5.66 -20.13,-5.66 -6.03,0 -11.43,1.83 -16.19,5.45 -4.77,3.61 -8.18,8.65 -10.22,15.09 -3.09,9.8 -4.61,20.55 -4.61,32.24l0 85.28 -27.68 0z"/>
    <path id="2" class="fil0" d="M389.54 346.4l86.38 -225.18 32.76 0 91.67 225.18 -33.91 0 -26.05 -68.24 -94.82 0 -24.43 68.24 -31.61 0zm64.79 -92.46l76.74 0 -23.48 -62.43c-7.07,-18.98 -12.42,-34.65 -16.14,-47.02 -3.09,14.68 -7.24,29.09 -12.43,43.35l-24.68 66.09z"/>
    <path id="3" class="fil0" d="M620.53 152.68l0 -31.45 27.68 0 0 31.45 -27.68 0zm0 193.73l0 -163.22 27.68 0 0 163.22 -27.68 0z"/>
    <polygon id="4" class="fil0" points="692.6,346.4 692.6,121.23 722.48,121.23 722.48,319.99 833.18,319.99 833.18,346.4 "/>
    <path id="5" class="fil0" d="M846.71 151.11l0 -32.08 29.56 0 0 25.47c0,13.63 -1.57,23.48 -4.77,29.46 -4.46,8.28 -11.32,14.46 -20.7,18.66l-6.6 -10.9c5.56,-2.25 9.64,-5.77 12.37,-10.64 2.72,-4.82 4.24,-11.48 4.56,-19.97l-14.41 0z"/>
    <path id="6" class="fil0" d="M901.16 297.66l27.36 -4.4c1.52,10.96 5.82,19.34 12.84,25.21 7.02,5.82 16.88,8.75 29.46,8.75 12.74,0 22.17,-2.57 28.36,-7.76 6.13,-5.14 9.22,-11.22 9.22,-18.19 0,-6.24 -2.78,-11.17 -8.28,-14.73 -3.88,-2.46 -13.31,-5.56 -28.3,-9.38 -20.23,-5.09 -34.23,-9.49 -42.09,-13.21 -7.81,-3.78 -13.73,-8.91 -17.77,-15.52 -4.04,-6.55 -6.08,-13.84 -6.08,-21.8 0,-7.29 1.68,-14 4.98,-20.18 3.35,-6.19 7.86,-11.32 13.58,-15.41 4.3,-3.15 10.17,-5.82 17.56,-8.02 7.44,-2.2 15.35,-3.3 23.85,-3.3 12.79,0 24.01,1.83 33.65,5.56 9.7,3.67 16.83,8.7 21.44,14.99 4.56,6.34 7.76,14.78 9.48,25.37l-27.04 3.77c-1.21,-8.49 -4.77,-15.15 -10.64,-19.92 -5.87,-4.77 -14.15,-7.13 -24.9,-7.13 -12.63,0 -21.7,2.09 -27.1,6.29 -5.4,4.19 -8.13,9.12 -8.13,14.73 0,3.57 1.1,6.81 3.35,9.7 2.26,2.94 5.77,5.4 10.59,7.34 2.78,1.05 10.85,3.41 24.37,7.07 19.5,5.19 33.13,9.49 40.88,12.79 7.76,3.3 13.84,8.18 18.24,14.46 4.46,6.34 6.66,14.2 6.66,23.64 0,9.17 -2.67,17.82 -8.07,25.94 -5.4,8.13 -13.16,14.41 -23.27,18.87 -10.17,4.46 -21.65,6.66 -34.44,6.66 -21.18,0 -37.37,-4.41 -48.48,-13.16 -11.11,-8.81 -18.19,-21.8 -21.28,-39.05z"/>
    <path id="7" class="fil0" d="M98.48 697.74l86.38 -225.18 32.76 0 91.67 225.18 -33.91 0 -26.05 -68.24 -94.82 0 -24.43 68.24 -31.61 0zm64.79 -92.46l76.74 0 -23.48 -62.43c-7.07,-18.98 -12.42,-34.65 -16.14,-47.02 -3.09,14.68 -7.24,29.09 -12.43,43.35l-24.68 66.09z"/>
    <path id="8" class="fil0" d="M329.16 697.74l0 -163.22 24.85 0 0 25c6.34,-11.58 12.21,-19.24 17.61,-22.91 5.4,-3.72 11.32,-5.56 17.77,-5.56 9.33,0 18.82,2.94 28.46,8.75l-9.85 25.53c-6.71,-3.77 -13.42,-5.66 -20.13,-5.66 -6.03,0 -11.43,1.83 -16.19,5.45 -4.77,3.61 -8.18,8.65 -10.22,15.09 -3.09,9.8 -4.61,20.55 -4.61,32.24l0 85.28 -27.68 0z"/>
    <path id="9" class="fil0" d="M540.81 637.99l27.05 3.77c-2.99,18.61 -10.54,33.13 -22.75,43.66 -12.22,10.54 -27.26,15.78 -45.03,15.78 -22.28,0 -40.2,-7.29 -53.72,-21.86 -13.57,-14.57 -20.34,-35.43 -20.34,-62.58 0,-17.61 2.94,-32.97 8.76,-46.18 5.81,-13.15 14.67,-23.06 26.63,-29.61 11.9,-6.6 24.84,-9.91 38.89,-9.91 17.67,0 32.18,4.46 43.4,13.42 11.27,8.96 18.5,21.7 21.65,38.16l-26.73 4.09c-2.57,-10.96 -7.08,-19.18 -13.63,-24.74 -6.5,-5.5 -14.36,-8.28 -23.59,-8.28 -13.94,0 -25.26,4.98 -34.02,14.94 -8.7,10.01 -13.05,25.74 -13.05,47.33 0,21.91 4.19,37.79 12.58,47.7 8.44,9.91 19.39,14.89 32.86,14.89 10.91,0 19.97,-3.3 27.2,-9.96 7.29,-6.61 11.9,-16.83 13.84,-30.61z"/>
    <path id="10" class="fil0" d="M591.44 697.74l0 -225.18 27.68 0 0 81.04c12.84,-15.04 29.04,-22.54 48.64,-22.54 12,0 22.43,2.36 31.34,7.13 8.86,4.77 15.2,11.32 19.03,19.71 3.83,8.39 5.71,20.6 5.71,36.53l0 103.31 -27.67 0 0 -103.2c0,-13.79 -2.99,-23.85 -8.91,-30.14 -5.98,-6.29 -14.36,-9.43 -25.26,-9.43 -8.12,0 -15.78,2.1 -22.96,6.34 -7.18,4.24 -12.27,10.01 -15.36,17.3 -3.04,7.24 -4.56,17.25 -4.56,30.04l0 89.11 -27.68 0z"/>
    <path id="11" class="fil0" d="M766.35 504.01l0 -31.45 27.68 0 0 31.45 -27.68 0zm0 193.73l0 -163.22 27.68 0 0 163.22 -27.68 0z"/>
    <path id="12" class="fil0" d="M880.83 697.74l-61.59 -163.22 29.61 0 34.91 97.75c3.78,10.54 7.29,21.49 10.48,32.87 2.46,-8.59 5.87,-18.92 10.33,-31.03l36.27 -99.59 28.41 0 -61.8 163.22 -26.63 0z"/>
    <path id="13" class="fil0" d="M1104.8 644.91l28.62 3.78c-4.45,16.61 -12.79,29.56 -24.95,38.73 -12.16,9.17 -27.68,13.79 -46.6,13.79 -23.8,0 -42.67,-7.34 -56.61,-22.02 -13.94,-14.62 -20.91,-35.22 -20.91,-61.69 0,-27.36 7.02,-48.64 21.12,-63.74 14.1,-15.15 32.39,-22.7 54.88,-22.7 21.75,0 39.52,7.39 53.31,22.22 13.78,14.83 20.7,35.69 20.7,62.58 0,1.63 -0.05,4.09 -0.16,7.34l-121.55 0c1.05,17.87 6.08,31.61 15.2,41.09 9.07,9.49 20.44,14.26 34.02,14.26 10.12,0 18.76,-2.67 25.89,-8.02 7.18,-5.35 12.84,-13.89 17.04,-25.63zm-90.57 -44.34l90.89 0c-1.2,-13.73 -4.72,-24.01 -10.43,-30.87 -8.76,-10.64 -20.18,-15.98 -34.18,-15.98 -12.69,0 -23.32,4.24 -31.97,12.74 -8.6,8.49 -13.37,19.87 -14.31,34.12z"/>
    <path id="14" class="fil1 str0" d="M225.27 346.4l0 -141.83 -24.53 0 0 -21.39 24.53 0 0 -17.3c0,-10.95 0.94,-19.08 2.88,-24.37 2.67,-7.13 7.28,-12.95 14,-17.41 6.65,-4.45 16.04,-6.65 28.09,-6.65 7.81,0 16.41,0.94 25.84,2.78l-4.14 24.22c-5.76,-1 -11.16,-1.52 -16.3,-1.52 -8.39,0 -14.31,1.78 -17.82,5.35 -3.46,3.56 -5.19,10.22 -5.19,19.97l0 14.94 31.76 0 0 21.39 -31.45 0 0 141.83 -27.67 0z"/>
    <path id="15" class="fil1 str0" d="M305.73 346.4l0 -163.22 24.85 0 0 25c6.34,-11.58 12.21,-19.24 17.61,-22.91 5.4,-3.72 11.32,-5.56 17.77,-5.56 9.33,0 18.82,2.94 28.46,8.75l-9.85 25.53c-6.71,-3.77 -13.42,-5.66 -20.13,-5.66 -6.03,0 -11.43,1.83 -16.19,5.45 -4.77,3.61 -8.18,8.65 -10.22,15.09 -3.09,9.8 -4.61,20.55 -4.61,32.24l0 85.28 -27.68 0z"/>
    <path id="16" class="fil1 str0" d="M389.54 346.4l86.38 -225.18 32.76 0 91.67 225.18 -33.91 0 -26.05 -68.24 -94.82 0 -24.43 68.24 -31.61 0zm64.79 -92.46l76.74 0 -23.48 -62.43c-7.07,-18.98 -12.42,-34.65 -16.14,-47.02 -3.09,14.68 -7.24,29.09 -12.43,43.35l-24.68 66.09z"/>
    <path id="17" class="fil1 str0" d="M620.53 152.68l0 -31.45 27.68 0 0 31.45 -27.68 0zm0 193.73l0 -163.22 27.68 0 0 163.22 -27.68 0z"/>
    <polygon id="18" class="fil1 str0" points="692.6,346.4 692.6,121.23 722.48,121.23 722.48,319.99 833.18,319.99 833.18,346.4 "/>
    <path id="19" class="fil1 str0" d="M846.71 151.11l0 -32.08 29.56 0 0 25.47c0,13.63 -1.57,23.48 -4.77,29.46 -4.46,8.28 -11.32,14.46 -20.7,18.66l-6.6 -10.9c5.56,-2.25 9.64,-5.77 12.37,-10.64 2.72,-4.82 4.24,-11.48 4.56,-19.97l-14.41 0z"/>
    <path id="20" class="fil1 str0" d="M901.16 297.66l27.36 -4.4c1.52,10.96 5.82,19.34 12.84,25.21 7.02,5.82 16.88,8.75 29.46,8.75 12.74,0 22.17,-2.57 28.36,-7.76 6.13,-5.14 9.22,-11.22 9.22,-18.19 0,-6.24 -2.78,-11.17 -8.28,-14.73 -3.88,-2.46 -13.31,-5.56 -28.3,-9.38 -20.23,-5.09 -34.23,-9.49 -42.09,-13.21 -7.81,-3.78 -13.73,-8.91 -17.77,-15.52 -4.04,-6.55 -6.08,-13.84 -6.08,-21.8 0,-7.29 1.68,-14 4.98,-20.18 3.35,-6.19 7.86,-11.32 13.58,-15.41 4.3,-3.15 10.17,-5.82 17.56,-8.02 7.44,-2.2 15.35,-3.3 23.85,-3.3 12.79,0 24.01,1.83 33.65,5.56 9.7,3.67 16.83,8.7 21.44,14.99 4.56,6.34 7.76,14.78 9.48,25.37l-27.04 3.77c-1.21,-8.49 -4.77,-15.15 -10.64,-19.92 -5.87,-4.77 -14.15,-7.13 -24.9,-7.13 -12.63,0 -21.7,2.09 -27.1,6.29 -5.4,4.19 -8.13,9.12 -8.13,14.73 0,3.57 1.1,6.81 3.35,9.7 2.26,2.94 5.77,5.4 10.59,7.34 2.78,1.05 10.85,3.41 24.37,7.07 19.5,5.19 33.13,9.49 40.88,12.79 7.76,3.3 13.84,8.18 18.24,14.46 4.46,6.34 6.66,14.2 6.66,23.64 0,9.17 -2.67,17.82 -8.07,25.94 -5.4,8.13 -13.16,14.41 -23.27,18.87 -10.17,4.46 -21.65,6.66 -34.44,6.66 -21.18,0 -37.37,-4.41 -48.48,-13.16 -11.11,-8.81 -18.19,-21.8 -21.28,-39.05z"/>
    <path id="21" class="fil1 str0" d="M98.48 697.74l86.38 -225.18 32.76 0 91.67 225.18 -33.91 0 -26.05 -68.24 -94.82 0 -24.43 68.24 -31.61 0zm64.79 -92.46l76.74 0 -23.48 -62.43c-7.07,-18.98 -12.42,-34.65 -16.14,-47.02 -3.09,14.68 -7.24,29.09 -12.43,43.35l-24.68 66.09z"/>
    <path id="22" class="fil1 str0" d="M329.16 697.74l0 -163.22 24.85 0 0 25c6.34,-11.58 12.21,-19.24 17.61,-22.91 5.4,-3.72 11.32,-5.56 17.77,-5.56 9.33,0 18.82,2.94 28.46,8.75l-9.85 25.53c-6.71,-3.77 -13.42,-5.66 -20.13,-5.66 -6.03,0 -11.43,1.83 -16.19,5.45 -4.77,3.61 -8.18,8.65 -10.22,15.09 -3.09,9.8 -4.61,20.55 -4.61,32.24l0 85.28 -27.68 0z"/>
    <path id="23" class="fil1 str0" d="M540.81 637.99l27.05 3.77c-2.99,18.61 -10.54,33.13 -22.75,43.66 -12.22,10.54 -27.26,15.78 -45.03,15.78 -22.28,0 -40.2,-7.29 -53.72,-21.86 -13.57,-14.57 -20.34,-35.43 -20.34,-62.58 0,-17.61 2.94,-32.97 8.76,-46.18 5.81,-13.15 14.67,-23.06 26.63,-29.61 11.9,-6.6 24.84,-9.91 38.89,-9.91 17.67,0 32.18,4.46 43.4,13.42 11.27,8.96 18.5,21.7 21.65,38.16l-26.73 4.09c-2.57,-10.96 -7.08,-19.18 -13.63,-24.74 -6.5,-5.5 -14.36,-8.28 -23.59,-8.28 -13.94,0 -25.26,4.98 -34.02,14.94 -8.7,10.01 -13.05,25.74 -13.05,47.33 0,21.91 4.19,37.79 12.58,47.7 8.44,9.91 19.39,14.89 32.86,14.89 10.91,0 19.97,-3.3 27.2,-9.96 7.29,-6.61 11.9,-16.83 13.84,-30.61z"/>
    <path id="24" class="fil1 str0" d="M591.44 697.74l0 -225.18 27.68 0 0 81.04c12.84,-15.04 29.04,-22.54 48.64,-22.54 12,0 22.43,2.36 31.34,7.13 8.86,4.77 15.2,11.32 19.03,19.71 3.83,8.39 5.71,20.6 5.71,36.53l0 103.31 -27.67 0 0 -103.2c0,-13.79 -2.99,-23.85 -8.91,-30.14 -5.98,-6.29 -14.36,-9.43 -25.26,-9.43 -8.12,0 -15.78,2.1 -22.96,6.34 -7.18,4.24 -12.27,10.01 -15.36,17.3 -3.04,7.24 -4.56,17.25 -4.56,30.04l0 89.11 -27.68 0z"/>
    <path id="25" class="fil1 str0" d="M766.35 504.01l0 -31.45 27.68 0 0 31.45 -27.68 0zm0 193.73l0 -163.22 27.68 0 0 163.22 -27.68 0z"/>
    <path id="26" class="fil1 str0" d="M880.83 697.74l-61.59 -163.22 29.61 0 34.91 97.75c3.78,10.54 7.29,21.49 10.48,32.87 2.46,-8.59 5.87,-18.92 10.33,-31.03l36.27 -99.59 28.41 0 -61.8 163.22 -26.63 0z"/>
    <path id="27" class="fil1 str0" d="M1104.8 644.91l28.62 3.78c-4.45,16.61 -12.79,29.56 -24.95,38.73 -12.16,9.17 -27.68,13.79 -46.6,13.79 -23.8,0 -42.67,-7.34 -56.61,-22.02 -13.94,-14.62 -20.91,-35.22 -20.91,-61.69 0,-27.36 7.02,-48.64 21.12,-63.74 14.1,-15.15 32.39,-22.7 54.88,-22.7 21.75,0 39.52,7.39 53.31,22.22 13.78,14.83 20.7,35.69 20.7,62.58 0,1.63 -0.05,4.09 -0.16,7.34l-121.55 0c1.05,17.87 6.08,31.61 15.2,41.09 9.07,9.49 20.44,14.26 34.02,14.26 10.12,0 18.76,-2.67 25.89,-8.02 7.18,-5.35 12.84,-13.89 17.04,-25.63zm-90.57 -44.34l90.89 0c-1.2,-13.73 -4.72,-24.01 -10.43,-30.87 -8.76,-10.64 -20.18,-15.98 -34.18,-15.98 -12.69,0 -23.32,4.24 -31.97,12.74 -8.6,8.49 -13.37,19.87 -14.31,34.12z"/>
    <g id="_2248381475472">
     <rect class="fil2" x="1248.33" y="312.31" width="271.02" height="271.02"/>
     <rect class="fil3" x="1279.49" y="281.16" width="271.02" height="271.02"/>
     <rect class="fil4" x="1310.64" y="250" width="271.02" height="271.02"/>
    </g>
   </g>
  </g>
  <polygon class="fil5" points="-0,0 1666.66,0 1666.66,833.33 -0,833.33 "/>
 </g>
</svg>
